<svg width="127" height="52" viewBox="0 0 127 52" fill="none" xmlns="http://www.w3.org/2000/svg">
<path fill-rule="evenodd" clip-rule="evenodd" d="M11.6101 10.1687C13.201 10.1687 15.9554 10.8479 17.3487 11.5144C17.7078 11.6863 17.9898 11.7988 18.3637 11.9584C19.8803 12.6074 21.5108 13.5407 22.8824 14.4586L29.2233 19.4485L30.9582 21.2597C31.084 21.4024 31.2027 21.5047 31.3408 21.6418L32.6427 23.1911C32.7562 23.3525 32.7965 23.4287 32.9352 23.594C33.8202 24.6486 34.5019 25.8885 35.1371 27.0958C35.2058 27.2265 35.2864 27.4438 35.3473 27.5816C35.773 28.5477 36.0487 29.5468 36.1339 30.5599C36.1748 31.0458 36.0936 31.7032 35.8746 32.3567C35.7618 32.6935 35.6581 32.7058 35.477 32.9325C35.1301 33.3663 34.7563 33.6887 34.2217 33.8898C33.5536 34.1412 32.889 34.2691 32.1564 34.2674C31.8824 34.2667 31.5202 34.2487 31.373 34.2283C30.3174 34.0828 29.244 33.926 28.2437 33.5955C27.2284 33.2598 26.5071 33.0366 25.4574 32.5609L22.9136 31.2831C22.8116 31.2254 22.7223 31.154 22.6189 31.0911L17.204 27.4005C16.9759 27.2244 16.8824 27.1088 16.6778 26.9534L14.6269 25.1805C14.5449 25.0891 14.5572 25.0606 14.438 24.9524C14.0323 24.5836 13.5419 24.2011 13.1964 23.7606L12.8317 23.3605C12.2169 22.751 11.5064 21.897 10.9763 21.1827L10.3607 20.4075C9.32862 18.9616 8.48814 17.4401 7.87153 15.7312C7.77554 15.4651 7.75907 15.2426 7.67884 14.9494C7.51769 14.3609 7.49351 13.939 7.51593 13.2971L7.66063 12.4794C7.66378 12.4688 7.67044 12.4481 7.67324 12.4376L7.95071 11.7882C8.13079 11.5147 8.35571 11.1822 8.61321 10.9902C8.77402 10.8703 9.0063 10.7825 9.19374 10.6675L9.62781 10.4763C10.1467 10.2787 10.93 10.168 11.6111 10.168L11.6101 10.1687ZM36.6674 40.8143L38.6546 40.5836C39.1058 40.4842 39.5283 40.4202 39.9172 40.2451L41.5866 39.1339C41.8546 38.8241 42.1121 38.5823 42.2701 38.2177C42.3458 38.0426 42.3994 37.9699 42.4698 37.7916C43.2203 35.8954 42.7785 34.1211 42.275 32.2618C42.0305 31.3576 41.5733 30.4682 41.1553 29.6241L40.2896 28.0551C39.3794 26.5498 38.0961 24.6599 36.9249 23.2822L32.9124 18.9504L27.7137 14.4161L21.8461 10.3441C21.8328 10.3363 21.8149 10.3269 21.8012 10.3195L18.6089 8.50794C16.2903 7.35064 14.0015 6.34486 11.5312 5.58059C11.3547 5.5261 11.2401 5.47407 11.0649 5.42169C10.9293 5.38126 10.6887 5.33908 10.5541 5.30708C9.60749 5.08315 8.36236 4.75304 7.3779 4.733C7.16524 4.72878 6.99777 4.73441 6.78582 4.71754C6.68842 4.7098 6.70068 4.71262 6.60889 4.70312L5.65315 4.71366C5.45766 4.72984 5.29615 4.73265 5.08419 4.73335C4.66483 4.73546 4.39261 4.82722 4.00338 4.90315C3.76234 4.94991 3.70488 4.96538 3.50729 5.03217L1.82213 5.84882C1.46162 6.10791 1.12319 6.38845 0.870942 6.7748L0.483462 7.43079C0.476806 7.44661 0.470849 7.4656 0.464542 7.48142L0.105439 8.67387C-0.0469611 9.77282 -0.039603 10.2794 0.163247 11.488C0.314946 12.3929 0.621846 13.4008 0.980249 14.2871L1.96121 16.3675C2.5596 17.542 3.34578 18.7763 4.11268 19.8503L9.02522 25.5771C9.17797 25.743 9.15835 25.7722 9.31916 25.9089C9.77531 26.297 10.1407 26.7678 10.5881 27.1429L13.5324 29.7605C13.6673 29.8705 13.7454 29.9292 13.8796 30.0393L16.6873 32.2368L23.944 36.7957C24.0865 36.8748 24.2074 36.9476 24.3472 37.0179C25.7482 37.7203 27.157 38.4374 28.6246 38.9943C30.7312 39.7937 30.6643 39.6647 32.4251 40.1955C33.253 40.4451 34.6799 40.7011 35.6252 40.7457L36.6678 40.8139L36.6674 40.8143Z" fill="#FED065"/>
<path fill-rule="evenodd" clip-rule="evenodd" d="M11.0547 3.06445C11.1107 3.27538 11.0929 3.21668 11.2908 3.31511C11.5686 3.45292 11.0659 3.22652 11.3882 3.35694C11.4709 3.39034 11.4415 3.37734 11.5417 3.41179C13.444 4.06848 15.2483 4.95473 17.0705 5.80407L20.5641 7.66131C21.5055 7.66131 22.6238 7.36952 23.5056 7.49046C24.687 7.65252 24.6884 7.53335 26.3763 7.81916C27.2136 7.96083 28.0608 8.23539 28.854 8.53702C29.273 8.69627 29.624 8.81826 30.0031 8.98595C31.1526 9.49499 32.2092 10.1809 33.2157 10.9163L35.5746 13.007C36.1131 13.5455 36.6022 14.1379 37.0156 14.7651L37.6431 15.7371C38.4177 17.0417 38.6797 17.6636 39.1867 18.9942C39.5128 19.8502 39.6667 20.6265 39.8772 21.5053C39.9876 21.9648 40.0713 23.1506 40.0664 23.6835C40.0632 24.0674 40.0587 24.118 40.2342 24.3511C40.3666 24.5272 40.4385 24.6334 40.5537 24.7965C41.0989 25.5692 41.8073 26.2744 42.2865 27.0971L45.5234 32.6948C45.6183 32.9251 45.7122 33.084 45.7605 33.2924H45.9686C46.0002 32.9138 45.9504 33.2415 46.0703 32.9764L46.8375 30.891C47.1255 29.8905 47.2323 29.2194 47.4552 28.2371C47.5746 27.7098 47.5725 27.1663 47.664 26.5659C47.6923 26.3803 47.699 26.3328 47.7057 26.1166L47.7179 25.8582C47.719 25.8406 47.7211 25.8216 47.7218 25.8051C47.7225 25.79 47.7235 25.7707 47.7242 25.7566C47.7249 25.7429 47.7249 25.7236 47.7256 25.7106C47.7775 24.6447 47.726 23.3636 47.5827 22.2703L47.2712 20.2844C47.2443 20.1698 47.2359 20.0267 47.1991 19.8692C47.1598 19.7008 47.1286 19.7033 47.0869 19.4941C46.8999 18.5558 46.5334 17.3616 46.1673 16.4469C46.161 16.4314 46.1529 16.4135 46.1466 16.3977C45.7024 15.2854 45.1772 14.1397 44.5778 13.0966L43.0811 10.768C42.5875 10.0163 42.036 9.315 41.4397 8.65409L37.4865 5.09887C37.2472 4.94068 37.1638 4.83415 36.9329 4.67912C36.728 4.54166 36.5945 4.45272 36.4014 4.30683C36.1947 4.15109 36.0315 4.07797 35.8069 3.92856C35.5981 3.7897 35.4667 3.71271 35.2502 3.58158L34.0769 2.87848C33.8232 2.75122 33.6512 2.68619 33.4063 2.57651C32.4289 2.13918 31.8287 1.84598 30.7486 1.48213L30.2949 1.31093C29.2022 0.822978 26.7841 0.393737 25.5246 0.177534L21.2592 0L18.3278 0.332212C17.4555 0.543142 16.5484 0.688682 15.6869 1.02547C15.4823 1.10562 15.2354 1.18156 15.0651 1.2371C13.9738 1.59392 12.5654 2.17116 11.6317 2.80641C11.4229 2.94844 11.3679 3.03809 11.0557 3.06445H11.0547Z" fill="#FED065"/>
<path fill-rule="evenodd" clip-rule="evenodd" d="M107.536 14.6954C107.592 14.7597 107.561 14.6803 107.647 14.862L108.854 18.2474H106.286C106.303 18.0463 106.334 17.9795 106.403 17.8076C106.476 17.6273 106.507 17.5334 106.574 17.352L107.536 14.6954ZM87.0593 9.4717V23.1227C87.0593 23.2834 87.1076 23.3315 87.2674 23.3315H90.946V19.6403C91.2774 19.4177 91.3556 19.1977 91.6215 18.9249C91.921 18.6176 92.1183 18.3227 92.3344 18.1775C92.5022 18.3009 92.6427 18.5719 92.7787 18.7765L94.042 20.7125C94.3458 21.1695 94.59 21.572 94.8888 22.022L95.7356 23.3315H104.343L105.106 21.3115H109.895C110.197 21.8853 110.353 22.7518 110.659 23.3315H114.823C114.816 23.0158 114.641 22.7019 114.535 22.4361L112.037 16.1677C111.573 14.9998 111.108 13.839 110.629 12.6353C110.378 12.0064 110.165 11.4692 109.915 10.8441L109.385 9.4956C109.294 9.30787 109.245 9.26253 108.993 9.26253H105.73C105.362 9.96106 101.547 19.7218 100.981 21.1428C100.857 21.4539 100.765 21.681 100.643 21.9879C100.543 22.2372 100.337 22.6629 100.316 22.9135C100.149 22.8014 99.7782 22.2301 99.6216 22.0083L95.0405 15.3218L99.6503 9.98777C100.404 8.99816 101.118 9.26253 95.6652 9.26253C95.5121 9.49209 95.2766 9.72587 95.099 9.94805L90.9453 14.8342V10.5161C90.9453 9.86016 91.0686 9.26253 90.7372 9.26253H87.2667C87.1066 9.26253 87.0586 9.31104 87.0586 9.47135L87.0593 9.4717Z" fill="#FED065"/>
<path fill-rule="evenodd" clip-rule="evenodd" d="M33.891 44.1571V43.9482L31.2932 43.1421C31.0585 43.0518 30.911 43.0138 30.671 42.9305C29.6413 42.573 28.6166 42.1146 27.6307 41.6628C26.2619 41.0353 24.9544 40.3146 23.6189 39.6291C23.4094 39.5215 23.2948 39.4449 23.0857 39.3285L21.4439 38.399C19.4845 37.2386 17.5579 35.9544 15.7351 34.5858C15.3956 34.3309 15.13 34.1112 14.7755 33.8771L13.7717 33.143C13.4298 32.8864 13.1681 32.628 12.8192 32.3577L11.4195 31.1853C10.6926 30.4776 9.86715 29.8627 9.12757 29.167C8.26923 28.3591 6.22672 26.4625 5.67037 25.7408L5.40446 25.4504C5.3943 25.4402 5.37994 25.4258 5.36978 25.4156L2.04255 21.5806C1.90487 21.4048 1.78084 21.2368 1.54541 21.1738C1.54541 22.5857 1.96968 25.2476 2.37818 26.6067C2.42758 26.7708 2.43214 26.7557 2.48504 26.9174C2.53619 27.0732 2.54985 27.153 2.59539 27.2943L3.04629 28.6527C3.22601 29.2001 3.40084 29.4261 3.59948 29.9084L6.02737 34.1587C6.44849 34.789 6.87205 35.4379 7.39302 35.992L7.80888 36.4803C8.10702 36.8002 8.42549 37.0596 8.71277 37.3845L9.35705 38.0612C10.8688 39.44 11.9822 40.2749 13.6642 41.4006C13.8737 41.5408 14.0264 41.6055 14.2349 41.7331L15.0782 42.2102C16.0644 42.7864 17.1196 43.2082 18.1847 43.6203C19.7924 44.2421 21.0495 44.5357 22.7563 44.8834C24.0291 45.1425 24.8027 45.128 25.9865 45.2637C26.7289 45.3492 29.4083 45.1098 30.1808 44.9621C30.7375 44.8556 31.1902 44.8514 31.7262 44.702L33.891 44.1578V44.1571Z" fill="#FED065"/>
<path fill-rule="evenodd" clip-rule="evenodd" d="M65.473 25.9787V39.6301C65.473 39.7904 65.5214 39.8389 65.6811 39.8389H69.2904C69.5854 39.8389 69.5044 39.5235 69.4999 39.2135L69.4985 33.0132C69.715 33.1587 69.6586 33.1296 69.7773 33.3602L73.3092 39.5668C73.4241 39.757 73.4279 39.8385 73.7324 39.8385C74.5666 39.8385 76.8137 39.925 77.4804 39.7689L77.4811 26.4652C77.4842 26.1432 77.5764 25.7695 77.2723 25.7695H73.4549V32.5952C73.1158 32.346 70.1053 26.679 69.4985 25.7695H65.6808C65.521 25.7695 65.4727 25.818 65.4727 25.9783L65.473 25.9787Z" fill="#FED065"/>
<path fill-rule="evenodd" clip-rule="evenodd" d="M101.636 32.5951C101.636 34.1795 102.047 35.6599 102.775 36.8847C102.911 37.1135 102.976 37.2228 103.133 37.431C104.746 39.5705 106.905 40.4743 109.669 40.0989C109.938 40.0623 110.353 40.0011 110.69 39.9389C111.292 39.8282 112.098 39.6517 112.534 39.4207C112.534 39.7037 112.51 39.645 112.603 39.8387H115.588V31.829C115.588 31.6687 115.539 31.6202 115.379 31.6202H108.994C108.834 31.6202 108.786 31.6687 108.786 31.829V34.6151H111.562C111.562 35.8912 111.733 36.1777 110.815 36.4421C109.873 36.7131 108.508 36.7542 107.603 36.2891C107.39 36.1798 107.306 36.0866 107.106 35.952C106.869 35.7927 106.812 35.7442 106.615 35.5393C105.795 34.6857 105.754 33.9408 105.642 32.9586C105.443 31.218 107.056 29.1126 108.786 29.1126C109.471 29.1126 109.473 29.0785 110.146 29.2107C110.848 29.3488 111.371 29.699 111.77 30.2966C112.104 30.0723 112.159 30.0006 112.446 29.7208C112.602 29.5682 112.638 29.5703 112.792 29.4413L114.477 27.859C114.267 27.5443 113.813 27.1875 113.506 26.9527C113.127 26.6613 112.751 26.4637 112.28 26.2327C111.062 25.6351 109.728 25.5605 108.3 25.5605C106.243 25.5605 104.616 26.5945 103.632 27.7022C103.499 27.8512 103.401 28.0063 103.273 28.1775C102.356 29.4005 101.636 31.0018 101.636 32.5951H101.636Z" fill="#FED065"/>
<path fill-rule="evenodd" clip-rule="evenodd" d="M95.4582 32.3873H93.237V29.114C94.8682 29.114 97.1427 28.8419 97.3949 30.516C97.4499 30.8802 97.459 30.967 97.3865 31.3253C97.2015 32.2379 96.6052 32.3876 95.4586 32.3876L95.4582 32.3873ZM89.35 39.631C89.35 39.7913 89.3983 39.8398 89.5581 39.8398C90.3898 39.8398 92.5651 39.9273 93.2367 39.7702V35.8001C93.6616 35.8096 93.5982 35.9355 93.792 36.2181L95.516 38.4582C95.6047 38.5696 95.6579 38.6027 95.7525 38.7085C95.9606 38.9412 96.6133 39.8401 97.1238 39.8401H101.288C101.776 39.8401 101.107 39.4113 100.576 38.8832C100.363 38.6709 100.298 38.5296 100.092 38.3243C99.6361 37.8704 98.0364 35.8845 97.7481 35.4521C99.0766 35.1417 100.356 34.1071 100.941 32.8056C101.477 31.6111 101.4 29.687 100.803 28.4869C100.657 28.1944 100.521 27.9697 100.327 27.7103C99.8564 27.0782 100.052 27.2037 99.4252 26.7351C99.0633 26.4644 98.6096 26.2563 98.1741 26.11C97.6013 25.9174 96.7899 25.7715 96.0128 25.7715H89.3496V39.6317L89.35 39.631Z" fill="#FED065"/>
<path fill-rule="evenodd" clip-rule="evenodd" d="M69.3599 9.47148V23.3317H73.3857V17.9684H77.2724V23.1225C77.2724 23.2832 77.3208 23.3313 77.4805 23.3313H81.2979V9.47113C81.2979 9.31047 81.2495 9.26231 81.0898 9.26231H77.4805C77.3204 9.26231 77.2724 9.31083 77.2724 9.47113V14.6252H73.3857V9.33192C72.7162 9.17548 70.4102 9.26231 69.568 9.26231C69.4082 9.26231 69.3599 9.31083 69.3599 9.47113V9.47148Z" fill="#FED065"/>
<path fill-rule="evenodd" clip-rule="evenodd" d="M54.02 16.2276C54.02 17.613 54.5981 19.2713 55.3969 20.3481C56.5506 21.9033 58.5966 23.2631 60.5529 23.4625C62.1554 23.6259 63.3998 23.4273 64.8947 22.682C65.9391 22.1617 67.0402 21.1299 67.7346 20.1685C68.0401 19.7455 68.2899 19.2583 68.4875 18.7647C68.5555 18.5946 68.5821 18.5492 68.6382 18.358C68.8673 17.5751 69.1342 17.7593 66.8612 17.7593C66.1209 17.7593 65.3806 17.7593 64.64 17.7593C64.5034 18.3485 63.7803 19.0699 63.24 19.4193C61.6404 20.4536 58.0458 19.671 58.0458 16.0184C58.0458 14.943 58.4333 14.2378 58.9319 13.6338C59.0843 13.4493 59.1358 13.3558 59.334 13.2014C61.0129 11.8944 63.1644 12.3286 64.4032 14.0269C65.182 15.0945 63.7239 14.834 68.6658 14.834C68.9468 14.834 68.8319 14.57 68.7618 14.3225C68.6918 14.0754 68.6431 13.9172 68.5569 13.6897C68.3803 13.2243 68.2545 12.8928 68.0131 12.4938C67.8089 12.1556 67.5693 11.81 67.3261 11.5115C65.4041 9.15406 61.3937 8.06566 58.4379 9.51615C56.3824 10.5247 54.6808 12.2336 54.2218 14.5489C54.1181 15.072 54.02 15.7045 54.02 16.2269V16.2276Z" fill="#FED065"/>
<path fill-rule="evenodd" clip-rule="evenodd" d="M54.506 39.7689C55.2708 39.9479 62.8684 39.8385 64.2929 39.8385C64.4555 39.8385 64.5707 39.7229 64.5707 39.5601V36.6349C64.5707 36.4717 64.4555 36.3561 64.2929 36.3561H58.3931V34.2665H64.0155V31.202H58.3931V29.1824H64.501C64.6538 28.5253 64.5704 26.7588 64.5704 25.9783C64.5704 25.818 64.522 25.7695 64.3623 25.7695H54.7141C54.4195 25.7695 54.5001 26.0849 54.5046 26.3949C54.5645 30.712 54.506 35.4392 54.506 39.7689Z" fill="#FED065"/>
<path fill-rule="evenodd" clip-rule="evenodd" d="M78.3832 39.6313C78.3832 39.7916 78.4315 39.8401 78.5913 39.8401C80.0158 39.8401 87.6133 39.9495 88.3782 39.7705V36.4273C87.667 36.261 83.3398 36.3577 82.2699 36.3577V34.2681H87.8229V31.2036H82.2699V29.184H88.1697C88.3298 29.184 88.3778 29.1355 88.3778 28.9751V25.9803C88.3778 25.82 88.3295 25.7715 88.1697 25.7715H78.3828V39.6317L78.3832 39.6313Z" fill="#FED065"/>
<path fill-rule="evenodd" clip-rule="evenodd" d="M118.294 39.8389C122.734 39.8389 122.113 40.1384 122.112 38.8637C122.111 37.9553 122.017 33.3521 122.181 33.0122L125.863 27.2351C126.029 26.9543 126.702 25.998 126.763 25.7695H122.32C122.248 26.0782 120.233 29.1535 120.099 29.252C119.894 29.1015 118.725 27.1627 118.42 26.6881C118.254 26.4301 117.946 26.062 117.878 25.7695H113.436C113.497 25.998 114.169 26.9543 114.335 27.2351L117.882 32.8002C117.942 32.8979 117.974 32.9222 118.018 33.0122C118.182 33.3521 118.087 37.9553 118.086 38.8637C118.086 39.1822 117.96 39.8389 118.294 39.8389H118.294Z" fill="#FED065"/>
<path fill-rule="evenodd" clip-rule="evenodd" d="M82.2007 9.5421V22.9843C82.2007 23.1724 82.234 23.1762 82.2701 23.3327H86.2265V9.47249C86.2265 9.31183 86.1782 9.26367 86.0184 9.26367H82.4785C82.316 9.26367 82.2007 9.37933 82.2007 9.54245V9.5421Z" fill="#FED065"/>
<path fill-rule="evenodd" clip-rule="evenodd" d="M66.2362 50.1471H66.5834L68.388 47.0826L68.5551 49.4921C68.6518 50.1572 68.4423 50.1474 69.1517 50.1474C69.225 50.0085 69.2873 49.8676 69.3588 49.7284L71.0257 46.5254H70.5398L69.0127 49.5202C69.0127 49.1216 68.9398 48.3844 68.8914 48.0399C68.8564 47.7878 68.8858 47.5769 68.8448 47.3206C68.7986 47.0306 68.8042 46.8407 68.8042 46.5254H68.2489L66.6541 49.3132C66.6468 49.3269 66.6373 49.3452 66.6296 49.3582L66.4443 46.5254H65.9584C65.9584 46.8506 65.9531 47.1786 65.9559 47.5031L66.0277 49.3814C66.0256 49.7139 65.9247 50.1474 66.2362 50.1474V50.1471Z" fill="#FDFDFD"/>
<path fill-rule="evenodd" clip-rule="evenodd" d="M82.756 50.7047C82.756 50.4885 83.1652 50.0778 83.3807 50.0778C83.7997 50.0778 85.3241 49.958 85.3241 50.2867C85.3241 51.3142 82.756 51.6008 82.756 50.7047ZM84.4913 48.6847C83.3551 48.6847 83.5173 46.8042 85.116 46.8042C86.1663 46.8042 85.8233 48.6847 84.4913 48.6847ZM85.7406 46.595C84.7772 46.0835 83.3113 46.8766 83.3113 48.0578C83.3113 48.5774 83.5037 48.5033 83.5892 48.8242C83.3891 48.8777 83.311 48.9708 83.1894 49.1199C82.8727 49.5087 82.9154 49.727 83.1032 50.0086C81.8704 50.6628 82.103 51.6106 83.7279 51.6106C85.6888 51.6106 86.5808 49.6623 84.8413 49.6574C84.299 49.656 83.8292 49.6954 83.3807 49.5906C83.3898 49.1789 83.6624 48.8942 83.7279 48.8942C84.0271 48.8942 83.6757 49.0334 84.561 49.0334C85.3482 49.0334 86.1575 48.3517 86.1575 47.2922C86.1575 46.6601 85.5672 46.8988 86.3075 46.3282C86.4676 46.2052 86.586 46.1145 86.6435 45.899C86.4813 45.8128 86.4627 45.7795 86.2269 45.7598C86.1607 46.0083 85.8759 46.3398 85.741 46.5954L85.7406 46.595Z" fill="#FDFDFD"/>
<path fill-rule="evenodd" clip-rule="evenodd" d="M58.3931 47.9893L59.002 45.4778C60.7134 45.5214 61.4471 45.199 61.4471 46.5265C61.4471 48.19 59.3261 47.9893 58.3931 47.9893ZM57.4212 50.1485H57.8378L58.2705 48.4115C59.1817 48.4024 59.9725 48.5198 60.8007 48.1071C61.1412 47.9373 61.4033 47.7281 61.5854 47.4321C61.9473 46.8436 62.2031 45.8832 61.501 45.3583C60.9303 44.9319 59.5317 45.0644 58.6702 45.0644L58.0319 47.5579C57.9173 48.0174 57.4283 49.8244 57.4209 50.1489L57.4212 50.1485Z" fill="#FDFDFD"/>
<path fill-rule="evenodd" clip-rule="evenodd" d="M73.7326 48.1267H71.4421C71.5549 46.7662 73.802 46.1731 73.802 47.7087C73.802 47.9235 73.7638 47.8806 73.7326 48.1267ZM70.8174 48.8927C70.8174 49.278 70.9018 49.6587 71.1506 49.882C72.1652 50.7918 73.8023 49.6756 73.8023 49.3803C73.8023 49.2207 73.7788 49.2991 73.733 49.1015H73.5248C73.3353 49.8138 71.6932 50.1365 71.3688 49.3842C71.1667 48.9149 71.2932 48.936 71.3037 48.4747H74.0108C74.4463 47.6489 74.2217 46.4551 73.1777 46.4551C72.3747 46.4551 71.9101 46.6031 71.4298 47.2088C71.1443 47.5688 70.8174 48.2687 70.8174 48.8931V48.8927Z" fill="#FDFDFD"/>
<path fill-rule="evenodd" clip-rule="evenodd" d="M95.4581 48.1274C95.5755 46.7124 97.818 46.3352 97.818 47.5006C97.818 48.2694 97.9403 48.1278 96.7768 48.1274C96.3372 48.1271 95.8978 48.1274 95.4581 48.1274ZM94.9028 48.7542C94.9028 49.7256 95.0801 50.2167 96.3606 50.2167C97.049 50.2167 97.818 49.5382 97.818 49.381C97.818 49.2214 97.7946 49.2998 97.7487 49.1023C97.4621 49.1789 97.4299 49.3631 97.2071 49.5336C96.6707 49.9439 95.3194 49.9576 95.3194 49.1023V48.4754C98.174 48.4754 98.2346 48.7627 98.2346 47.5702C98.2346 45.6008 94.9028 46.3429 94.9028 48.7542Z" fill="#FDFDFD"/>
<path fill-rule="evenodd" clip-rule="evenodd" d="M119.196 46.8035C120.226 46.8035 120.099 47.5045 120.099 48.127C118.218 48.127 117.087 48.4027 118.171 47.3069C118.432 47.0432 118.7 46.8038 119.196 46.8038V46.8035ZM117.184 48.8235C117.184 49.7428 117.463 50.2163 118.572 50.2163C119.38 50.2163 120.099 49.5747 120.099 49.3807C120.099 49.2211 120.075 49.2995 120.029 49.1019C119.51 49.2411 119.745 49.7983 118.433 49.7983C117.473 49.7983 117.6 49.0133 117.6 48.4747H120.376C120.644 47.3206 120.685 46.4551 119.127 46.4551C118.094 46.4551 117.184 47.7481 117.184 48.8231V48.8235Z" fill="#FDFDFD"/>
<path fill-rule="evenodd" clip-rule="evenodd" d="M91.0159 50.1473H91.224C91.6644 49.2259 91.5095 46.8041 93.1673 46.8041C94.1304 46.8041 93.9213 47.5476 93.7507 48.225C93.6627 48.5745 93.5951 48.8487 93.5145 49.1721C93.4452 49.4502 93.3131 49.839 93.3064 50.1473H93.723C93.7587 49.7174 93.9346 49.1591 94.0422 48.7264C94.3102 47.6503 94.8238 46.4557 93.3064 46.4557C92.6614 46.4557 92.3507 46.8027 91.9877 47.2217C92.0312 46.6962 92.4628 45.5613 92.4737 45.0625H92.0571C92.0277 45.4172 91.8472 45.9744 91.7516 46.358L90.9311 49.6467C90.8719 49.8692 90.7156 50.147 91.0159 50.147V50.1473Z" fill="#FDFDFD"/>
<path fill-rule="evenodd" clip-rule="evenodd" d="M100.247 50.147H100.594C100.694 49.9381 100.806 49.3693 100.872 49.1022C100.965 48.7313 101.063 48.3593 101.15 47.9877C101.636 47.9877 102.122 47.9874 102.608 47.9877C103.246 47.9885 103.6 48.1611 103.649 47.5698H101.289C101.296 47.2523 101.434 46.847 101.511 46.539C101.592 46.2128 101.694 45.8282 101.775 45.4805H104.621C104.687 45.342 104.72 45.2312 104.76 45.0625H101.428C101.415 45.6341 100.248 49.5325 100.248 50.147H100.247Z" fill="#FDFDFD"/>
<path fill-rule="evenodd" clip-rule="evenodd" d="M63.3211 49.7983C63.0453 49.7983 62.7234 49.818 62.5149 49.5624C61.9274 48.8414 62.5247 46.8035 64.0845 46.8035C65.0336 46.8035 65.1488 48.145 64.4737 49.1441C64.2523 49.4717 63.8354 49.7983 63.3211 49.7983ZM61.8633 48.6143C61.8633 49.4461 61.9523 50.2163 63.182 50.2163C64.3945 50.2163 65.3338 48.9919 65.3338 47.9179V47.4303C65.3338 46.5402 63.7184 45.8705 62.5037 47.1677C62.2522 47.4363 61.8633 48.1264 61.8633 48.6143Z" fill="#FDFDFD"/>
<path fill-rule="evenodd" clip-rule="evenodd" d="M80.1184 47.1521C80.1671 46.9433 80.2382 46.7556 80.2571 46.5253H79.8406C79.7467 46.7215 79.6587 47.1848 79.5908 47.4587C79.5035 47.8085 79.4352 48.0823 79.3546 48.4058L78.9994 49.8032C78.9118 50.1575 78.9318 50.147 79.3546 50.147C79.4545 49.9382 79.5659 49.3694 79.6325 49.1022C79.878 48.1168 80.0133 46.8037 81.3677 46.8037C82.4307 46.8037 81.8491 48.2173 81.7149 48.7538C81.6539 48.9967 81.6182 49.1549 81.5594 49.4333C81.5135 49.6509 81.4374 49.8418 81.4374 50.147C81.9707 50.147 81.8431 50.051 82.1455 48.8375C82.3007 48.2152 82.7046 47.2274 82.2863 46.718C82.0547 46.436 81.7054 46.4554 81.3681 46.4554C80.6618 46.4554 80.5073 46.8906 80.1184 47.1518V47.1521Z" fill="#FDFDFD"/>
<path fill-rule="evenodd" clip-rule="evenodd" d="M112.811 49.5202C112.804 49.8352 112.741 49.7969 112.741 50.147H113.089L114.007 46.5292L113.575 46.525C113.55 46.8143 113.426 47.1891 113.352 47.4861C113.277 47.7902 113.179 48.1868 113.104 48.4901C112.958 49.0765 112.604 49.6784 111.964 49.7849C110.843 49.9719 110.835 49.3507 111.048 48.5169L111.562 46.525C111.089 46.525 111.124 46.4782 111.031 46.8976C110.962 47.2056 110.915 47.3775 110.84 47.6812C110.696 48.2595 110.198 49.5729 110.783 50.0233C111.709 50.7362 112.758 49.5557 112.811 49.5198L112.811 49.5202Z" fill="#FDFDFD"/>
<path fill-rule="evenodd" clip-rule="evenodd" d="M106.494 49.521C106.487 49.8359 106.425 49.7976 106.425 50.1478H106.772L107.691 46.53L107.258 46.5258C107.234 46.8151 107.11 47.1898 107.036 47.4869C106.96 47.791 106.863 48.1875 106.787 48.4909C106.696 48.86 106.635 49.058 106.41 49.2963C106.177 49.5438 106.022 49.7235 105.648 49.7857C104.121 50.0398 104.67 48.7634 104.981 47.5147C105.039 47.283 105.15 46.7247 105.245 46.5258C104.678 46.5258 104.846 46.3876 104.523 47.682C104.274 48.6815 103.64 50.2965 105.245 50.2216C105.951 50.1889 106.083 49.7966 106.494 49.5206L106.494 49.521Z" fill="#FDFDFD"/>
<path fill-rule="evenodd" clip-rule="evenodd" d="M89.2111 46.5254H88.5865C88.5563 46.8896 88.391 46.8738 89.0724 46.8738C89.0549 47.6655 88.5171 48.4161 88.5171 49.8687C88.8821 50.1141 88.6912 50.2171 89.3502 50.2171C89.628 50.2171 89.8743 50.1119 90.0463 50.01C90.3137 49.8518 90.3221 49.7952 90.3221 49.3811C90.0712 49.4482 90.1683 49.47 89.9297 49.6142C89.2605 50.0174 88.934 49.6219 88.934 49.5203C88.934 49.1174 89.1218 48.5581 89.2118 48.1971C89.2914 47.8782 89.4424 47.1174 89.559 46.8735C90.6812 46.8735 90.7684 47.0078 90.8083 46.5251H89.6284C89.6936 46.2446 89.7713 45.97 89.8365 45.6895C89.724 45.7193 89.463 45.8508 89.387 45.9348C89.2843 46.0473 89.2269 46.3461 89.2118 46.5254H89.2111Z" fill="#FDFDFD"/>
<path fill-rule="evenodd" clip-rule="evenodd" d="M108.785 46.5254H108.16V46.8738H108.715C108.604 47.108 108.453 47.8582 108.382 48.1415C108.153 49.0622 107.645 50.2171 108.924 50.2171C109.201 50.2171 109.448 50.1119 109.62 50.01C109.887 49.8518 109.895 49.7952 109.895 49.3811C109.558 49.4714 109.468 49.7991 108.993 49.7991C108.185 49.7991 108.587 48.9898 108.785 48.1971C108.864 47.8782 109.015 47.1174 109.132 46.8735C110.254 46.8735 110.341 47.0078 110.381 46.5251H109.201C109.267 46.2446 109.344 45.97 109.409 45.6895C109.256 45.7306 109.07 45.836 108.977 45.9521C108.862 46.0969 108.831 46.3275 108.785 46.5251V46.5254Z" fill="#FDFDFD"/>
<path fill-rule="evenodd" clip-rule="evenodd" d="M75.6761 47.1531C75.6951 46.9232 75.7665 46.7351 75.8149 46.5263H75.3983C75.2795 46.7748 75.2032 47.1703 75.1345 47.4456L74.6626 49.3401C74.4913 50.0242 74.3343 50.1479 74.9124 50.1479C75.0077 49.9486 75.1184 49.3904 75.1762 49.159C75.4158 48.1968 75.5525 46.8051 76.8558 46.8051C77.417 46.8051 76.8887 47.7068 76.8558 47.8499H77.2723C77.4776 47.4607 77.8802 46.457 77.0642 46.457C76.0468 46.457 76.1354 46.8448 75.6758 47.1535L75.6761 47.1531Z" fill="#FDFDFD"/>
<path fill-rule="evenodd" clip-rule="evenodd" d="M115.31 47.2217C115.332 46.9458 115.426 46.8016 115.448 46.5253H115.032C114.987 47.0709 114.199 49.5936 114.199 50.147H114.546C114.824 49.5662 114.907 47.9737 115.467 47.31C115.987 46.6933 116.767 46.6568 116.767 47.0125C116.767 47.6003 116.589 47.4748 116.489 47.8482H116.906C117.906 46.3495 116.373 45.9765 115.435 47.0695L115.372 47.1458C115.364 47.1553 115.347 47.1757 115.34 47.1834C115.334 47.1911 115.32 47.2091 115.309 47.2214L115.31 47.2217Z" fill="#FDFDFD"/>
<path fill-rule="evenodd" clip-rule="evenodd" d="M77.6891 50.1471H77.8972L78.3551 48.3781C78.5141 47.7393 78.6546 47.149 78.7993 46.5254H78.3828L77.5416 49.8032C77.4989 49.9755 77.4176 50.1471 77.6887 50.1471H77.6891Z" fill="#FDFDFD"/>
<path fill-rule="evenodd" clip-rule="evenodd" d="M55.1305 50.1475H55.4083C55.9286 49.0598 55.3201 49.2419 55.1305 49.2419C54.9949 49.8251 54.7854 50.1475 55.1305 50.1475Z" fill="#FDFDFD"/>
<path fill-rule="evenodd" clip-rule="evenodd" d="M53.9508 50.1475H54.2287C54.7489 49.0598 54.1404 49.2419 53.9508 49.2419C53.8152 49.8251 53.6057 50.1475 53.9508 50.1475Z" fill="#FDFDFD"/>
<path fill-rule="evenodd" clip-rule="evenodd" d="M56.2414 50.1475H56.5189C57.0391 49.0598 56.4306 49.2419 56.2414 49.2419C56.2022 49.4103 56.1507 49.598 56.1107 49.7467C56.0561 49.951 55.9548 50.1472 56.2414 50.1472V50.1475Z" fill="#FDFDFD"/>
<path fill-rule="evenodd" clip-rule="evenodd" d="M78.522 45.8985H78.9385C79.0041 45.7617 79.1309 45.2548 79.1466 45.0625H78.7301C78.6646 45.1996 78.5377 45.7062 78.522 45.8985Z" fill="#FDFDFD"/>
</svg>
