<?xml version="1.0" encoding="UTF-8"?>
<!DOCTYPE svg PUBLIC "-//W3C//DTD SVG 1.1//EN" "http://www.w3.org/Graphics/SVG/1.1/DTD/svg11.dtd">
<!-- Creator: CorelDRAW -->
<svg xmlns="http://www.w3.org/2000/svg" xml:space="preserve" width="7.2in" height="7.2in" version="1.1" style="shape-rendering:geometricPrecision; text-rendering:geometricPrecision; image-rendering:optimizeQuality; fill-rule:evenodd; clip-rule:evenodd"
viewBox="0 0 7200 7200"
 xmlns:xlink="http://www.w3.org/1999/xlink"
 xmlns:xodm="http://www.corel.com/coreldraw/odm/2003">
 <defs>
  <style type="text/css">
   <![CDATA[
    .fil1 {fill:#FDFDFD}
    .fil0 {fill:#FED065}
   ]]>
  </style>
 </defs>
 <g id="Layer_x0020_1">
  <metadata id="CorelCorpID_0Corel-Layer"/>
  <g id="_1981871083408">
   <path class="fil0" d="M1897.76 2938.81c45.41,0 124.03,19.32 163.8,38.28 10.25,4.89 18.3,8.09 28.97,12.63 43.29,18.46 89.83,45.01 128.98,71.12l180.99 141.94 49.52 51.52c3.59,4.06 6.98,6.97 10.92,10.87l37.16 44.07c3.24,4.59 4.39,6.76 8.35,11.46 25.26,30 44.72,65.27 62.85,99.61 1.96,3.72 4.26,9.9 6,13.82 12.15,27.48 20.02,55.9 22.45,84.72 1.17,13.82 -1.15,32.52 -7.4,51.11 -3.22,9.58 -6.18,9.93 -11.35,16.38 -9.9,12.34 -20.57,21.51 -35.83,27.23 -19.07,7.15 -38.04,10.79 -58.95,10.74 -7.82,-0.02 -18.16,-0.53 -22.36,-1.11 -30.13,-4.14 -60.77,-8.6 -89.32,-18 -28.98,-9.55 -49.57,-15.9 -79.53,-29.43l-72.61 -36.35c-2.91,-1.64 -5.46,-3.67 -8.41,-5.46l-154.56 -104.98c-6.51,-5.01 -9.18,-8.3 -15.02,-12.72l-58.54 -50.43c-2.34,-2.6 -1.99,-3.41 -5.39,-6.49 -11.58,-10.49 -25.58,-21.37 -35.44,-33.9l-10.41 -11.38c-17.55,-17.34 -37.83,-41.63 -52.96,-61.95l-17.57 -22.05c-29.46,-41.13 -53.45,-84.41 -71.05,-133.02 -2.74,-7.57 -3.21,-13.9 -5.5,-22.24 -4.6,-16.74 -5.29,-28.74 -4.65,-47l4.13 -23.26c0.09,-0.3 0.28,-0.89 0.36,-1.19l7.92 -18.47c5.14,-7.78 11.56,-17.24 18.91,-22.7 4.59,-3.41 11.22,-5.91 16.57,-9.18l12.39 -5.44c14.81,-5.62 37.17,-8.77 56.61,-8.77zm715.22 871.73l56.72 -6.56c12.88,-2.83 24.94,-4.65 36.04,-9.63l47.65 -31.61c7.65,-8.81 15,-15.69 19.51,-26.06 2.16,-4.98 3.69,-7.05 5.7,-12.12 21.42,-53.94 8.81,-104.41 -5.56,-157.3 -6.98,-25.72 -20.03,-51.02 -31.96,-75.03l-24.71 -44.63c-25.98,-42.82 -62.61,-96.58 -96.04,-135.77l-114.53 -123.22 -148.39 -128.98 -167.48 -115.83c-0.38,-0.22 -0.89,-0.49 -1.28,-0.7l-91.12 -51.53c-66.18,-32.92 -131.51,-61.53 -202.02,-83.27 -5.04,-1.55 -8.31,-3.03 -13.31,-4.52 -3.87,-1.15 -10.74,-2.35 -14.58,-3.26 -27.02,-6.37 -62.56,-15.76 -90.66,-16.33 -6.07,-0.12 -10.85,0.04 -16.9,-0.44 -2.78,-0.22 -2.43,-0.14 -5.05,-0.41l-27.28 0.3c-5.58,0.46 -10.19,0.54 -16.24,0.56 -11.97,0.06 -19.74,2.67 -30.85,4.83 -6.88,1.33 -8.52,1.77 -14.16,3.67l-48.1 23.23c-10.29,7.37 -19.95,15.35 -27.15,26.34l-11.06 18.66c-0.19,0.45 -0.36,0.99 -0.54,1.44l-10.25 33.92c-4.35,31.26 -4.14,45.67 1.65,80.05 4.33,25.74 13.09,54.41 23.32,79.62l28 59.18c17.08,33.41 39.52,68.52 61.41,99.07l140.22 162.9c4.36,4.72 3.8,5.55 8.39,9.44 13.02,11.04 23.45,24.43 36.22,35.1l84.04 74.46c3.85,3.13 6.08,4.8 9.91,7.93l80.14 62.51 207.13 129.68c4.07,2.25 7.52,4.32 11.51,6.32 39.99,19.98 80.2,40.38 122.09,56.22 60.13,22.74 58.22,19.07 108.48,34.17 23.63,7.1 64.36,14.38 91.34,15.65l29.76 1.94z"/>
   <path class="fil0" d="M1881.91 2736.73c1.6,6 1.09,4.33 6.74,7.13 7.93,3.92 -6.42,-2.52 2.78,1.19 2.36,0.95 1.52,0.58 4.38,1.56 54.3,18.68 105.8,43.89 157.81,68.05l99.72 52.83c26.87,0 58.79,-8.3 83.96,-4.86 33.72,4.61 33.76,1.22 81.94,9.35 23.9,4.03 48.08,11.84 70.72,20.42 11.96,4.53 21.98,8 32.8,12.77 32.81,14.48 62.97,33.99 91.7,54.91l67.33 59.47c15.37,15.32 29.33,32.17 41.13,50.01l17.91 27.65c22.11,37.11 29.59,54.8 44.06,92.65 9.31,24.35 13.7,46.43 19.71,71.43 3.15,13.07 5.54,46.8 5.4,61.96 -0.09,10.92 -0.22,12.36 4.79,18.99 3.78,5.01 5.83,8.03 9.12,12.67 15.56,21.98 35.78,42.04 49.46,65.44l92.39 159.23c2.71,6.55 5.39,11.07 6.77,17l5.94 0c0.9,-10.77 -0.52,-1.45 2.9,-8.99l21.9 -59.32c8.22,-28.46 11.27,-47.55 17.63,-75.49 3.41,-15 3.35,-30.46 5.96,-47.54 0.81,-5.28 1,-6.63 1.19,-12.78l0.35 -7.35c0.03,-0.5 0.09,-1.04 0.11,-1.51 0.02,-0.43 0.05,-0.98 0.07,-1.38 0.02,-0.39 0.02,-0.94 0.04,-1.31 1.48,-30.32 0.01,-66.76 -4.08,-97.86l-8.89 -56.49c-0.77,-3.26 -1.01,-7.33 -2.06,-11.81 -1.12,-4.79 -2.01,-4.72 -3.2,-10.67 -5.34,-26.69 -15.8,-60.66 -26.25,-86.68 -0.18,-0.44 -0.41,-0.95 -0.59,-1.4 -12.68,-31.64 -27.67,-64.23 -44.78,-93.9l-42.72 -66.24c-14.09,-21.38 -29.83,-41.33 -46.85,-60.13l-112.84 -101.13c-6.83,-4.5 -9.21,-7.53 -15.8,-11.94 -5.85,-3.91 -9.66,-6.44 -15.17,-10.59 -5.9,-4.43 -10.56,-6.51 -16.97,-10.76 -5.96,-3.95 -9.71,-6.14 -15.89,-9.87l-33.49 -20c-7.24,-3.62 -12.15,-5.47 -19.14,-8.59 -27.9,-12.44 -45.03,-20.78 -75.86,-31.13l-12.95 -4.87c-31.19,-13.88 -100.21,-26.09 -136.16,-32.24l-121.75 -5.05 -83.67 9.45c-24.9,6 -50.79,10.14 -75.38,19.72 -5.84,2.28 -12.89,4.44 -17.75,6.02 -31.15,10.15 -71.35,26.57 -98,44.64 -5.96,4.04 -7.53,6.59 -16.44,7.34z"/>
   <path class="fil0" d="M4635.79 3067.59c1.6,1.83 0.73,-0.43 3.18,4.74l34.46 96.3 -73.3 0c0.48,-5.72 1.35,-7.62 3.34,-12.51 2.09,-5.13 2.96,-7.8 4.87,-12.96l27.45 -75.57zm-584.46 -148.59l0 388.31c0,4.57 1.38,5.94 5.94,5.94l105 0 0 -105c9.46,-6.33 11.69,-12.59 19.28,-20.35 8.55,-8.74 14.18,-17.13 20.35,-21.26 4.79,3.51 8.8,11.22 12.68,17.04l36.06 55.07c8.67,13 15.64,24.45 24.17,37.25l24.17 37.25 245.67 0 21.79 -57.46 136.7 0c8.63,16.32 13.07,40.97 21.79,57.46l118.87 0c-0.2,-8.98 -5.19,-17.91 -8.21,-25.47l-71.32 -178.31c-13.24,-33.22 -26.5,-66.24 -40.19,-100.48 -7.15,-17.89 -13.24,-33.17 -20.37,-50.95l-15.13 -38.36c-2.59,-5.34 -4,-6.63 -11.2,-6.63l-93.12 0c-10.51,19.87 -119.41,297.52 -135.57,337.94 -3.54,8.85 -6.14,15.31 -9.64,24.04 -2.85,7.09 -8.74,19.2 -9.33,26.33 -4.77,-3.19 -15.35,-19.44 -19.82,-25.75l-130.76 -190.2 131.58 -151.73c21.52,-28.15 41.9,-20.63 -113.75,-20.63 -4.37,6.53 -11.09,13.18 -16.16,19.5l-118.56 138.99 0 -122.83c0,-18.66 3.52,-35.66 -5.94,-35.66l-99.06 0c-4.57,0 -5.94,1.38 -5.94,5.94z"/>
   <path class="fil0" d="M2533.73 3905.65l0 -5.94 -74.15 -22.93c-6.7,-2.57 -10.91,-3.65 -17.76,-6.02 -29.39,-10.17 -58.64,-23.21 -86.78,-36.06 -39.07,-17.85 -76.39,-38.35 -114.51,-57.85 -5.98,-3.06 -9.25,-5.24 -15.22,-8.55l-46.86 -26.44c-55.93,-33.01 -110.92,-69.54 -162.95,-108.47 -9.69,-7.25 -17.27,-13.5 -27.39,-20.16l-28.65 -20.88c-9.76,-7.3 -17.23,-14.65 -27.19,-22.34l-39.95 -33.35c-20.75,-20.13 -44.31,-37.62 -65.42,-57.41 -24.5,-22.98 -82.8,-76.93 -98.68,-97.46l-7.59 -8.26c-0.29,-0.29 -0.7,-0.7 -0.99,-0.99l-94.97 -109.09c-3.93,-5 -7.47,-9.78 -14.19,-11.57 0,40.16 12.11,115.88 23.77,154.54 1.41,4.67 1.54,4.24 3.05,8.84 1.46,4.43 1.85,6.7 3.15,10.72l12.87 38.64c5.13,15.57 10.12,22 15.79,35.72l69.3 120.9c12.02,17.93 24.11,36.39 38.98,52.15l11.87 13.89c8.51,9.1 17.6,16.48 25.8,25.72l18.39 19.25c43.15,39.22 74.93,62.97 122.94,94.99 5.98,3.99 10.34,5.83 16.29,9.46l24.07 13.57c28.15,16.39 58.27,28.39 88.67,40.11 45.89,17.69 81.77,26.04 130.49,35.93 36.33,7.37 58.41,6.96 92.2,10.82 21.19,2.43 97.67,-4.38 119.72,-8.58 15.89,-3.03 28.81,-3.15 44.11,-7.4l61.79 -15.48z"/>
   <path class="fil0" d="M3435.18 3388.55l0 388.32c0,4.56 1.38,5.94 5.94,5.94l103.02 0c8.42,0 6.11,-8.97 5.98,-17.79l-0.04 -176.37c6.18,4.14 4.57,3.31 7.96,9.87l100.81 176.55c3.28,5.41 3.39,7.73 12.08,7.73 23.81,0 87.95,2.46 106.98,-1.98l0.02 -378.43c0.09,-9.16 2.72,-19.79 -5.96,-19.79l-108.96 0 0 194.16c-9.68,-7.09 -95.61,-168.29 -112.93,-194.16l-108.97 0c-4.56,0 -5.94,1.38 -5.94,5.94z"/>
   <path class="fil0" d="M4467.39 3576.76c0,45.07 11.73,87.18 32.52,122.02 3.89,6.51 5.74,9.62 10.22,15.54 46.04,60.86 107.66,86.57 186.56,75.89 7.67,-1.04 19.53,-2.78 29.14,-4.55 17.19,-3.15 40.2,-8.17 52.62,-14.74 0,8.05 -0.67,6.38 1.98,11.89l85.19 0 0 -227.84c0,-4.56 -1.38,-5.94 -5.94,-5.94l-182.27 0c-4.57,0 -5.94,1.38 -5.94,5.94l0 79.25 79.25 0c0,36.3 4.89,44.45 -21.33,51.97 -26.87,7.71 -65.85,8.88 -91.67,-4.35 -6.09,-3.11 -8.47,-5.76 -14.19,-9.59 -6.76,-4.53 -8.39,-5.91 -14.02,-11.74 -23.41,-24.28 -24.58,-45.47 -27.78,-73.41 -5.67,-49.51 40.37,-109.4 89.74,-109.4 19.55,0 19.63,-0.97 38.82,2.79 20.06,3.93 34.98,13.89 46.37,30.89 9.54,-6.38 11.1,-8.42 19.28,-16.38 4.45,-4.34 5.5,-4.28 9.88,-7.95l48.11 -45.01c-5.99,-8.95 -18.97,-19.1 -27.71,-25.78 -10.83,-8.29 -21.56,-13.91 -35,-20.48 -34.78,-17 -72.85,-19.12 -113.62,-19.12 -58.7,0 -105.13,29.41 -133.24,60.92 -3.78,4.24 -6.59,8.65 -10.25,13.52 -26.16,34.79 -46.7,80.34 -46.7,125.66z"/>
   <path class="fil0" d="M4291.06 3570.82l-63.4 0 0 -93.11c46.56,0 111.48,-7.74 118.68,39.88 1.57,10.36 1.83,12.83 -0.24,23.02 -5.28,25.96 -22.3,30.22 -55.03,30.22zm-174.35 206.05c0,4.56 1.38,5.94 5.94,5.94 23.74,0 85.83,2.49 105,-1.98l0 -112.93c12.13,0.27 10.32,3.85 15.85,11.89l49.21 63.72c2.53,3.17 4.05,4.11 6.75,7.12 5.94,6.62 24.57,32.19 39.14,32.19l118.87 0c13.93,0 -5.18,-12.2 -20.33,-27.22 -6.09,-6.04 -7.94,-10.06 -13.82,-15.9 -13.01,-12.91 -58.67,-69.4 -66.9,-81.7 37.92,-8.83 74.45,-38.26 91.14,-75.28 15.31,-33.98 13.1,-88.71 -3.95,-122.85 -4.16,-8.32 -8.05,-14.71 -13.57,-22.09 -13.44,-17.98 -7.87,-14.41 -25.75,-27.74 -10.33,-7.7 -23.28,-13.62 -35.71,-17.78 -16.35,-5.48 -39.51,-9.63 -61.69,-9.63l-190.19 0 0 394.26z"/>
   <path class="fil0" d="M3546.13 2919l0 394.26 114.91 0 0 -152.56 110.94 0 0 146.61c0,4.57 1.38,5.94 5.94,5.94l108.96 0 0 -394.26c0,-4.57 -1.38,-5.94 -5.94,-5.94l-103.02 0c-4.57,0 -5.94,1.38 -5.94,5.94l0 146.61 -110.94 0 0 -150.57c-19.11,-4.45 -84.93,-1.98 -108.97,-1.98 -4.56,0 -5.94,1.38 -5.94,5.94z"/>
   <path class="fil0" d="M3108.28 3111.18c0,39.41 16.5,86.58 39.3,117.21 32.93,44.24 91.33,82.92 147.17,88.59 45.74,4.65 81.26,-1 123.93,-22.2 29.81,-14.8 61.24,-44.15 81.06,-71.5 8.72,-12.03 15.85,-25.89 21.49,-39.93 1.94,-4.84 2.7,-6.13 4.3,-11.57 6.54,-22.27 14.16,-17.03 -50.72,-17.03 -21.13,0 -42.26,0 -63.4,0 -3.9,16.76 -24.54,37.28 -39.96,47.22 -45.66,29.42 -148.26,7.16 -148.26,-96.74 0,-30.59 11.06,-50.65 25.29,-67.83 4.35,-5.25 5.82,-7.91 11.48,-12.3 47.92,-37.18 109.33,-24.83 144.69,23.48 22.23,30.37 -19.39,22.96 121.67,22.96 8.02,0 4.74,-7.51 2.74,-14.55 -2,-7.03 -3.39,-11.53 -5.85,-18 -5.04,-13.24 -8.63,-22.67 -15.52,-34.02 -5.83,-9.62 -12.67,-19.45 -19.61,-27.94 -54.86,-67.06 -169.33,-98.02 -253.7,-56.76 -58.67,28.69 -107.24,77.3 -120.34,143.16 -2.96,14.88 -5.76,32.87 -5.76,47.73z"/>
   <path class="fil0" d="M3122.15 3780.83c21.83,5.09 238.69,1.98 279.35,1.98 4.64,0 7.93,-3.29 7.93,-7.92l0 -83.21c0,-4.64 -3.29,-7.93 -7.93,-7.93l-168.4 0 0 -59.44 160.48 0 0 -87.17 -160.48 0 0 -57.45 174.34 0c4.36,-18.69 1.98,-68.94 1.98,-91.14 0,-4.56 -1.38,-5.94 -5.94,-5.94l-275.39 0c-8.41,0 -6.11,8.97 -5.98,17.79 1.71,122.8 0.04,257.27 0.04,380.43z"/>
   <path class="fil0" d="M3803.69 3776.87c0,4.56 1.38,5.94 5.94,5.94 40.66,0 257.52,3.11 279.35,-1.98l0 -95.1c-20.3,-4.73 -143.81,-1.98 -174.35,-1.98l0 -59.44 158.5 0 0 -87.17 -158.5 0 0 -57.45 168.4 0c4.57,0 5.94,-1.38 5.94,-5.94l0 -85.19c0,-4.56 -1.38,-5.94 -5.94,-5.94l-279.35 0 0 394.26z"/>
   <path class="fil0" d="M4942.88 3782.81c126.73,0 109,8.52 108.97,-27.74 -0.02,-25.84 -2.73,-156.78 1.95,-166.45l105.12 -164.33c4.74,-7.99 23.94,-35.19 25.67,-41.69l-126.8 0c-2.05,8.78 -59.58,96.26 -63.4,99.06 -5.85,-4.28 -39.22,-59.43 -47.92,-72.93 -4.74,-7.34 -13.54,-17.81 -15.48,-26.13l-126.8 0c1.74,6.5 20.93,33.7 25.67,41.69l101.24 158.3c1.71,2.78 2.64,3.47 3.88,6.03 4.68,9.67 1.97,140.61 1.95,166.45 -0,9.06 -3.6,27.74 5.94,27.74z"/>
   <path class="fil0" d="M3912.65 2920.98l0 382.37c0,5.35 0.95,5.46 1.98,9.91l112.93 0 0 -394.26c0,-4.57 -1.38,-5.94 -5.94,-5.94l-101.04 0c-4.64,0 -7.93,3.29 -7.93,7.93z"/>
   <path class="fil1" d="M3456.97 4076.03l9.91 0 51.51 -87.17 4.77 68.54c2.76,18.92 -3.22,18.64 17.03,18.64 2.09,-3.95 3.87,-7.96 5.91,-11.92l47.58 -91.11 -13.87 0 -43.59 85.19c0,-11.34 -2.08,-32.31 -3.46,-42.11 -1,-7.17 -0.16,-13.17 -1.33,-20.46 -1.32,-8.25 -1.16,-13.65 -1.16,-22.62l-15.85 0 -45.52 79.3c-0.21,0.39 -0.48,0.91 -0.7,1.28l-5.29 -80.58 -13.87 0c0,9.25 -0.15,18.58 -0.07,27.81l2.05 53.43c-0.06,9.46 -2.94,21.79 5.95,21.79z"/>
   <path class="fil1" d="M3928.5 4091.88c0,-6.15 11.68,-17.83 17.83,-17.83 11.96,0 55.47,-3.41 55.47,5.94 0,29.23 -73.3,37.38 -73.3,11.89zm49.53 -57.46c-32.43,0 -27.8,-53.49 17.83,-53.49 29.98,0 20.19,53.49 -17.83,53.49zm35.66 -59.44c-27.5,-14.55 -69.34,8.01 -69.34,41.61 0,14.78 5.49,12.67 7.93,21.8 -5.71,1.52 -7.94,4.17 -11.41,8.41 -9.04,11.06 -7.82,17.27 -2.46,25.28 -35.19,18.61 -28.55,45.57 17.83,45.57 55.97,0 81.43,-55.42 31.78,-55.56 -15.48,-0.04 -28.89,1.08 -41.69,-1.9 0.26,-11.71 8.04,-19.81 9.91,-19.81 8.54,0 -1.49,3.96 23.78,3.96 22.47,0 45.57,-19.39 45.57,-49.53 0,-17.98 -16.85,-11.19 4.28,-27.42 4.57,-3.5 7.95,-6.08 9.59,-12.21 -4.63,-2.45 -5.16,-3.4 -11.89,-3.96 -1.89,7.07 -10.02,16.5 -13.87,23.77z"/>
   <path class="fil1" d="M3233.1 4014.61l17.38 -71.44c48.85,1.24 69.79,-7.93 69.79,29.83 0,47.32 -60.54,41.61 -87.17,41.61zm-27.74 61.42l11.89 0 12.35 -49.41c26.01,-0.26 48.58,3.08 72.22,-8.66 9.72,-4.83 17.2,-10.78 22.4,-19.2 10.33,-16.74 17.63,-44.06 -2.41,-58.99 -16.29,-12.13 -56.21,-8.36 -80.8,-8.36l-18.22 70.93c-3.27,13.07 -17.23,64.47 -17.44,73.7z"/>
   <path class="fil1" d="M3670.94 4018.57l-65.38 0c3.22,-38.7 67.36,-55.57 67.36,-11.89 0,6.11 -1.09,4.89 -1.98,11.89zm-83.21 21.79c0,10.96 2.41,21.79 9.51,28.14 28.96,25.88 75.69,-5.87 75.69,-14.27 0,-4.54 -0.67,-2.31 -1.98,-7.93l-5.94 0c-5.41,20.26 -52.28,29.44 -61.54,8.04 -5.77,-13.35 -2.16,-12.75 -1.86,-25.87l77.27 0c12.43,-23.49 6.02,-57.45 -23.78,-57.45 -22.92,0 -36.18,4.21 -49.89,21.44 -8.15,10.24 -17.48,30.15 -17.48,47.91z"/>
   <path class="fil1" d="M4291.06 4018.57c3.35,-40.25 67.36,-50.98 67.36,-17.83 0,21.87 3.49,17.84 -29.72,17.83 -12.55,-0.01 -25.09,0 -37.64,0zm-15.85 17.83c0,27.63 5.06,41.6 41.61,41.6 19.65,0 41.6,-19.3 41.6,-23.77 0,-4.54 -0.67,-2.31 -1.98,-7.93 -8.18,2.18 -9.1,7.42 -15.46,12.27 -15.31,11.67 -53.88,12.06 -53.88,-12.27l0 -17.83c81.48,0 83.21,8.17 83.21,-25.75 0,-56.02 -95.1,-34.91 -95.1,33.68z"/>
   <path class="fil1" d="M4968.63 3980.93c29.4,0 25.76,19.94 25.76,37.65 -53.69,0 -85.98,7.84 -55.03,-23.33 7.44,-7.5 15.09,-14.31 29.27,-14.31zm-57.45 57.46c0,26.15 7.98,39.62 39.62,39.62 23.08,0 43.59,-18.25 43.59,-23.77 0,-4.54 -0.67,-2.31 -1.98,-7.93 -14.84,3.96 -8.13,19.81 -45.57,19.81 -27.39,0 -23.78,-22.33 -23.78,-37.65l79.25 0c7.65,-32.83 8.8,-57.45 -35.66,-57.45 -29.49,0 -55.47,36.78 -55.47,67.36z"/>
   <path class="fil1" d="M4164.26 4076.03l5.94 0c12.57,-26.21 8.15,-95.1 55.47,-95.1 27.49,0 21.52,21.15 16.65,40.42 -2.51,9.94 -4.44,17.74 -6.74,26.94 -1.98,7.91 -5.75,18.97 -5.94,27.74l11.89 0c1.02,-12.23 6.04,-28.11 9.11,-40.42 7.65,-30.61 22.31,-64.59 -21,-64.59 -18.41,0 -27.28,9.87 -37.64,21.79 1.24,-14.95 13.56,-47.23 13.87,-61.42l-11.89 0c-0.84,10.09 -5.99,25.94 -8.72,36.85l-23.42 93.55c-1.69,6.33 -6.15,14.23 2.42,14.23z"/>
   <path class="fil1" d="M4427.76 4076.03l9.91 0c2.85,-5.94 6.03,-22.12 7.93,-29.72 2.64,-10.55 5.46,-21.13 7.93,-31.7 13.87,0 27.74,-0.01 41.61,0 18.23,0.02 28.32,4.93 29.72,-11.89l-67.36 0c0.2,-9.03 4.15,-20.56 6.34,-29.32 2.32,-9.28 5.22,-20.22 7.53,-30.11l81.23 0c1.89,-3.94 2.84,-7.09 3.96,-11.89l-95.1 0c-0.36,16.26 -33.68,127.15 -33.68,144.63z"/>
   <path class="fil1" d="M3373.76 4066.12c-7.87,0 -17.06,0.56 -23.01,-6.71 -16.77,-20.51 0.28,-78.48 44.8,-78.48 27.09,0 30.38,38.16 11.11,66.58 -6.32,9.32 -18.22,18.61 -32.9,18.61zm-41.61 -33.68c0,23.66 2.54,45.57 37.64,45.57 34.61,0 61.42,-34.83 61.42,-65.38l0 -13.87c0,-25.32 -46.11,-44.37 -80.78,-7.47 -7.18,7.64 -18.28,27.27 -18.28,41.15z"/>
   <path class="fil1" d="M3853.21 3990.83c1.39,-5.94 3.42,-11.28 3.96,-17.83l-11.89 0c-2.68,5.58 -5.19,18.76 -7.13,26.55 -2.49,9.95 -4.44,17.74 -6.74,26.94l-10.14 39.75c-2.5,10.08 -1.93,9.78 10.14,9.78 2.85,-5.94 6.03,-22.12 7.93,-29.72 7.01,-28.03 10.87,-65.38 49.53,-65.38 30.34,0 13.74,40.21 9.91,55.47 -1.74,6.91 -2.76,11.41 -4.44,19.33 -1.31,6.19 -3.48,11.62 -3.48,20.3 15.22,0 11.58,-2.73 20.21,-37.25 4.43,-17.7 15.96,-45.8 4.02,-60.29 -6.61,-8.02 -16.58,-7.47 -26.21,-7.47 -20.16,0 -24.57,12.38 -35.67,19.81z"/>
   <path class="fil1" d="M4786.36 4058.2l1.09 -4.26 -1.09 4.26zm0 0c-0.2,8.96 -1.98,7.87 -1.98,17.83l9.91 0 26.22 -102.91 -12.35 -0.12c-0.69,8.23 -4.23,18.89 -6.34,27.34 -2.16,8.65 -4.95,19.93 -7.1,28.56 -4.16,16.68 -14.25,33.8 -32.52,36.83 -32,5.32 -32.25,-12.35 -26.16,-36.07l14.67 -56.66c-13.51,0 -12.49,-1.33 -15.16,10.6 -1.96,8.76 -3.29,13.65 -5.44,22.29 -4.11,16.45 -18.34,53.81 -1.64,66.62 26.44,20.28 56.38,-13.3 57.9,-14.32z"/>
   <path class="fil1" d="M4606.07 4058.2l1.09 -4.26 -1.09 4.26zm0 0c-0.2,8.96 -1.98,7.87 -1.98,17.83l9.91 0 26.22 -102.91 -12.35 -0.12c-0.69,8.23 -4.22,18.89 -6.34,27.34 -2.16,8.65 -4.95,19.93 -7.1,28.56 -2.61,10.5 -4.35,16.13 -10.77,22.91 -6.66,7.04 -11.07,12.15 -21.76,13.92 -43.57,7.23 -27.9,-29.08 -19.02,-64.6 1.65,-6.59 4.81,-22.47 7.53,-28.13 -16.18,0 -11.4,-3.93 -20.61,32.89 -7.11,28.43 -25.2,74.37 20.61,72.24 20.15,-0.93 23.92,-12.09 35.65,-19.94z"/>
   <path class="fil1" d="M4112.75 3973l-17.83 0c-0.86,10.36 -5.58,9.91 13.87,9.91 -0.5,22.52 -15.85,43.87 -15.85,85.19 10.42,6.98 4.97,9.91 23.78,9.91 7.93,0 14.96,-2.99 19.87,-5.89 7.63,-4.5 7.87,-6.11 7.87,-17.89 -7.16,1.91 -4.39,2.53 -11.2,6.63 -19.1,11.47 -28.42,0.22 -28.42,-2.67 0,-11.46 5.36,-27.37 7.93,-37.64 2.27,-9.07 6.58,-30.71 9.91,-37.65 32.03,0 34.52,3.82 35.66,-9.91l-33.68 0c1.86,-7.98 4.08,-15.79 5.94,-23.77 -3.21,0.85 -10.66,4.59 -12.83,6.98 -2.93,3.2 -4.57,11.7 -5,16.8z"/>
   <path class="fil1" d="M4671.45 3973l-17.83 0 0 9.91 15.85 0c-3.19,6.66 -7.5,28 -9.51,36.06 -6.55,26.19 -21.04,59.04 15.45,59.04 7.93,0 14.96,-2.99 19.87,-5.89 7.62,-4.5 7.87,-6.11 7.87,-17.89 -9.63,2.57 -12.2,11.89 -25.76,11.89 -23.07,0 -11.58,-23.02 -5.94,-45.57 2.27,-9.07 6.58,-30.71 9.91,-37.65 32.03,0 34.52,3.82 35.66,-9.91l-33.68 0c1.86,-7.98 4.08,-15.79 5.94,-23.77 -4.37,1.17 -9.69,4.17 -12.34,7.47 -3.3,4.12 -4.18,10.68 -5.49,16.3z"/>
   <path class="fil1" d="M3726.42 3990.83c0.54,-6.54 2.58,-11.89 3.96,-17.83l-11.89 0c-3.39,7.07 -5.57,18.32 -7.53,26.15l-13.47 53.89c-4.89,19.46 -9.37,22.98 7.13,22.98 2.72,-5.67 5.88,-21.55 7.53,-28.13 6.84,-27.37 10.74,-66.96 47.94,-66.96 16.02,0 0.94,25.65 0,29.72l11.89 0c5.86,-11.07 17.35,-39.62 -5.94,-39.62 -29.04,0 -26.51,11.03 -39.63,19.81z"/>
   <path class="fil1" d="M4857.69 3992.81c0.65,-7.85 3.31,-11.95 3.96,-19.81l-11.89 0c-1.29,15.52 -23.78,87.28 -23.78,103.02l9.91 0c7.93,-16.52 10.31,-61.82 26.29,-80.7 14.84,-17.54 37.11,-18.58 37.11,-8.46 0,16.72 -5.09,13.15 -7.93,23.77l11.89 0c28.54,-42.63 -15.22,-53.24 -41.97,-22.15l-1.8 2.17c-0.23,0.27 -0.72,0.85 -0.91,1.07 -0.18,0.22 -0.58,0.73 -0.89,1.08z"/>
   <path class="fil1" d="M3783.87 4076.03l5.94 0 13.07 -50.32c4.54,-18.17 8.55,-34.96 12.68,-52.7l-11.89 0 -24.01 93.24c-1.22,4.9 -3.54,9.78 4.2,9.78z"/>
   <path class="fil1" d="M3139.98 4076.03l7.93 0c14.85,-30.94 -2.52,-25.76 -7.93,-25.76 -3.87,16.59 -9.85,25.76 0,25.76z"/>
   <path class="fil1" d="M3106.3 4076.03l7.93 0c14.85,-30.94 -2.52,-25.76 -7.93,-25.76 -3.87,16.59 -9.85,25.76 0,25.76z"/>
   <path class="fil1" d="M3171.68 4076.03l7.92 0c14.85,-30.94 -2.52,-25.76 -7.92,-25.76 -1.12,4.79 -2.59,10.13 -3.73,14.36 -1.56,5.81 -4.45,11.39 3.73,11.39z"/>
   <path class="fil1" d="M3807.65 3955.17l11.89 0c1.87,-3.89 5.49,-18.31 5.94,-23.78l-11.89 0c-1.87,3.9 -5.49,18.31 -5.94,23.78z"/>
  </g>
 </g>
</svg>
